<?xml version="1.0" encoding="UTF-8"?>
<svg xmlns="http://www.w3.org/2000/svg" xmlns:xlink="http://www.w3.org/1999/xlink" width="45px" height="30px" viewBox="0 0 45 30" version="1.1">
<g id="surface1">
<path style=" stroke:none;fill-rule:nonzero;fill:rgb(100%,100%,100%);fill-opacity:1;" d="M 5.996094 10.246094 L 1.523438 0.960938 L 9.453125 0.960938 L 13.578125 9.992188 L 13.695312 10.246094 L 15.199219 10.246094 L 15.316406 9.996094 L 19.460938 0.960938 L 27.394531 0.960938 L 22.914062 10.246094 L 23.972656 10.246094 L 28.917969 0 L 18.847656 0 L 14.445312 9.59375 L 10.066406 0 L 0 0 L 4.9375 10.246094 Z M 5.996094 10.246094 "/>
<path style=" stroke:none;fill-rule:nonzero;fill:rgb(100%,100%,100%);fill-opacity:1;" d="M 19.246094 17.847656 L 14.449219 27.796875 L 9.660156 17.847656 L 8.597656 17.847656 L 14.449219 30 L 20.3125 17.847656 Z M 19.246094 17.847656 "/>
<path style=" stroke:none;fill-rule:nonzero;fill:rgb(100%,100%,100%);fill-opacity:1;" d="M 30.558594 10.246094 L 30.558594 0.9375 L 38.761719 0.9375 L 38.761719 10.246094 L 39.695312 10.246094 L 39.695312 0 L 29.625 0 L 29.625 10.246094 Z M 30.558594 10.246094 "/>
<path style=" stroke:none;fill-rule:nonzero;fill:rgb(100%,100%,100%);fill-opacity:1;" d="M 38.761719 17.847656 L 38.761719 29.0625 L 30.558594 29.0625 L 30.558594 17.847656 L 29.625 17.847656 L 29.625 30 L 39.695312 30 L 39.695312 17.847656 Z M 38.761719 17.847656 "/>
</g>
</svg>
